<svg width="1512" height="851" viewBox="0 0 1512 851" fill="none" xmlns="http://www.w3.org/2000/svg">
<path d="M0 0H1512V850H0V0Z" fill="white"/>
<circle cx="97.5" cy="794.5" r="3.5" fill="#E6E6E6"/>
<circle cx="97.5" cy="847.5" r="3.5" fill="#E6E6E6"/>
<circle cx="97.5" cy="741.5" r="3.5" fill="#E6E6E6"/>
<circle cx="97.5" cy="688.5" r="3.5" fill="#E6E6E6"/>
<circle cx="97.5" cy="635.5" r="3.5" fill="#E6E6E6"/>
<circle cx="97.5" cy="582.5" r="3.5" fill="#E6E6E6"/>
<circle cx="97.5" cy="529.5" r="3.5" fill="#E6E6E6"/>
<circle cx="97.5" cy="478.5" r="3.5" fill="#E6E6E6"/>
<circle cx="97.5" cy="425.5" r="3.5" fill="#E6E6E6"/>
<circle cx="97.5" cy="372.5" r="3.5" fill="#E6E6E6"/>
<circle cx="97.5" cy="319.5" r="3.5" fill="#E6E6E6"/>
<circle cx="97.5" cy="266.5" r="3.5" fill="#E6E6E6"/>
<circle cx="97.5" cy="213.5" r="3.5" fill="#E6E6E6"/>
<circle cx="97.5" cy="160.5" r="3.5" fill="#E6E6E6"/>
<circle cx="97.5" cy="107.5" r="3.5" fill="#E6E6E6"/>
<circle cx="97.5" cy="54.5" r="3.5" fill="#E6E6E6"/>
<circle cx="97.5" cy="4.5" r="3.5" fill="#E6E6E6"/>
<circle cx="44.5" cy="794.5" r="3.5" fill="#E6E6E6"/>
<circle cx="44.5" cy="847.5" r="3.5" fill="#E6E6E6"/>
<circle cx="44.5" cy="741.5" r="3.5" fill="#E6E6E6"/>
<circle cx="44.5" cy="688.5" r="3.5" fill="#E6E6E6"/>
<circle cx="44.5" cy="635.5" r="3.5" fill="#E6E6E6"/>
<circle cx="44.5" cy="582.5" r="3.5" fill="#E6E6E6"/>
<circle cx="44.5" cy="529.5" r="3.5" fill="#E6E6E6"/>
<circle cx="44.5" cy="478.5" r="3.5" fill="#E6E6E6"/>
<circle cx="44.5" cy="425.5" r="3.5" fill="#E6E6E6"/>
<circle cx="44.5" cy="372.5" r="3.5" fill="#E6E6E6"/>
<circle cx="44.5" cy="319.5" r="3.5" fill="#E6E6E6"/>
<circle cx="44.5" cy="266.5" r="3.5" fill="#E6E6E6"/>
<circle cx="44.5" cy="213.5" r="3.5" fill="#E6E6E6"/>
<circle cx="44.5" cy="160.5" r="3.5" fill="#E6E6E6"/>
<circle cx="44.5" cy="107.5" r="3.5" fill="#E6E6E6"/>
<circle cx="44.5" cy="54.5" r="3.5" fill="#E6E6E6"/>
<circle cx="44.5" cy="4.5" r="3.5" fill="#E6E6E6"/>
<circle cx="202.5" cy="794.5" r="3.5" fill="#E6E6E6"/>
<circle cx="202.5" cy="847.5" r="3.5" fill="#E6E6E6"/>
<circle cx="202.5" cy="741.5" r="3.5" fill="#E6E6E6"/>
<circle cx="202.5" cy="688.5" r="3.5" fill="#E6E6E6"/>
<circle cx="202.5" cy="635.5" r="3.5" fill="#E6E6E6"/>
<circle cx="202.5" cy="582.5" r="3.5" fill="#E6E6E6"/>
<circle cx="202.5" cy="529.5" r="3.5" fill="#E6E6E6"/>
<circle cx="202.5" cy="478.5" r="3.5" fill="#E6E6E6"/>
<circle cx="202.5" cy="425.5" r="3.5" fill="#E6E6E6"/>
<circle cx="202.5" cy="372.5" r="3.5" fill="#E6E6E6"/>
<circle cx="202.5" cy="319.5" r="3.5" fill="#E6E6E6"/>
<circle cx="202.5" cy="266.5" r="3.5" fill="#E6E6E6"/>
<circle cx="202.5" cy="213.5" r="3.5" fill="#E6E6E6"/>
<circle cx="202.5" cy="160.5" r="3.5" fill="#E6E6E6"/>
<circle cx="202.5" cy="107.5" r="3.5" fill="#E6E6E6"/>
<circle cx="202.5" cy="54.5" r="3.5" fill="#E6E6E6"/>
<circle cx="202.5" cy="4.5" r="3.5" fill="#E6E6E6"/>
<circle cx="149.5" cy="794.5" r="3.5" fill="#E6E6E6"/>
<circle cx="149.5" cy="847.5" r="3.5" fill="#E6E6E6"/>
<circle cx="149.5" cy="741.5" r="3.5" fill="#E6E6E6"/>
<circle cx="149.5" cy="688.5" r="3.5" fill="#E6E6E6"/>
<circle cx="149.5" cy="635.5" r="3.5" fill="#E6E6E6"/>
<circle cx="149.5" cy="582.5" r="3.5" fill="#E6E6E6"/>
<circle cx="149.5" cy="529.5" r="3.5" fill="#E6E6E6"/>
<circle cx="149.5" cy="478.5" r="3.5" fill="#E6E6E6"/>
<circle cx="149.5" cy="425.5" r="3.5" fill="#E6E6E6"/>
<circle cx="149.5" cy="372.5" r="3.5" fill="#E6E6E6"/>
<circle cx="149.5" cy="319.5" r="3.5" fill="#E6E6E6"/>
<circle cx="149.5" cy="266.5" r="3.5" fill="#E6E6E6"/>
<circle cx="149.5" cy="213.5" r="3.5" fill="#E6E6E6"/>
<circle cx="149.5" cy="160.5" r="3.5" fill="#E6E6E6"/>
<circle cx="149.5" cy="107.5" r="3.5" fill="#E6E6E6"/>
<circle cx="149.5" cy="54.5" r="3.5" fill="#E6E6E6"/>
<circle cx="149.5" cy="4.5" r="3.5" fill="#E6E6E6"/>
<circle cx="307.5" cy="794.5" r="3.5" fill="#E6E6E6"/>
<circle cx="307.5" cy="847.5" r="3.5" fill="#E6E6E6"/>
<circle cx="307.5" cy="741.5" r="3.5" fill="#E6E6E6"/>
<circle cx="307.5" cy="688.5" r="3.5" fill="#E6E6E6"/>
<circle cx="307.5" cy="635.5" r="3.5" fill="#E6E6E6"/>
<circle cx="307.5" cy="582.5" r="3.5" fill="#E6E6E6"/>
<circle cx="307.5" cy="529.5" r="3.5" fill="#E6E6E6"/>
<circle cx="307.5" cy="478.5" r="3.5" fill="#E6E6E6"/>
<circle cx="307.5" cy="425.5" r="3.5" fill="#E6E6E6"/>
<circle cx="307.5" cy="372.5" r="3.5" fill="#E6E6E6"/>
<circle cx="307.5" cy="319.5" r="3.5" fill="#E6E6E6"/>
<circle cx="307.5" cy="266.5" r="3.5" fill="#E6E6E6"/>
<circle cx="307.5" cy="213.5" r="3.5" fill="#E6E6E6"/>
<circle cx="307.5" cy="160.5" r="3.5" fill="#E6E6E6"/>
<circle cx="307.5" cy="107.5" r="3.5" fill="#E6E6E6"/>
<circle cx="307.5" cy="54.5" r="3.5" fill="#E6E6E6"/>
<circle cx="307.5" cy="4.5" r="3.5" fill="#E6E6E6"/>
<circle cx="254.5" cy="794.5" r="3.5" fill="#E6E6E6"/>
<circle cx="254.5" cy="847.5" r="3.5" fill="#E6E6E6"/>
<circle cx="254.5" cy="741.5" r="3.5" fill="#E6E6E6"/>
<circle cx="254.5" cy="688.5" r="3.5" fill="#E6E6E6"/>
<circle cx="254.5" cy="635.5" r="3.5" fill="#E6E6E6"/>
<circle cx="254.5" cy="582.5" r="3.5" fill="#E6E6E6"/>
<circle cx="254.5" cy="529.5" r="3.5" fill="#E6E6E6"/>
<circle cx="254.5" cy="478.5" r="3.5" fill="#E6E6E6"/>
<circle cx="254.5" cy="425.5" r="3.5" fill="#E6E6E6"/>
<circle cx="254.5" cy="372.5" r="3.5" fill="#E6E6E6"/>
<circle cx="254.5" cy="319.5" r="3.5" fill="#E6E6E6"/>
<circle cx="254.5" cy="266.5" r="3.5" fill="#E6E6E6"/>
<circle cx="254.5" cy="213.5" r="3.5" fill="#E6E6E6"/>
<circle cx="254.5" cy="160.5" r="3.5" fill="#E6E6E6"/>
<circle cx="254.5" cy="107.5" r="3.5" fill="#E6E6E6"/>
<circle cx="254.5" cy="54.5" r="3.5" fill="#E6E6E6"/>
<circle cx="254.5" cy="4.5" r="3.5" fill="#E6E6E6"/>
<circle cx="412.5" cy="794.5" r="3.5" fill="#E6E6E6"/>
<circle cx="412.5" cy="847.5" r="3.5" fill="#E6E6E6"/>
<circle cx="412.5" cy="741.5" r="3.5" fill="#E6E6E6"/>
<circle cx="412.5" cy="688.5" r="3.5" fill="#E6E6E6"/>
<circle cx="412.5" cy="635.5" r="3.5" fill="#E6E6E6"/>
<circle cx="412.5" cy="582.5" r="3.5" fill="#E6E6E6"/>
<circle cx="412.5" cy="529.5" r="3.5" fill="#E6E6E6"/>
<circle cx="412.5" cy="478.5" r="3.5" fill="#E6E6E6"/>
<circle cx="412.5" cy="425.5" r="3.5" fill="#E6E6E6"/>
<circle cx="412.5" cy="372.5" r="3.5" fill="#E6E6E6"/>
<circle cx="412.5" cy="319.5" r="3.5" fill="#E6E6E6"/>
<circle cx="412.5" cy="266.5" r="3.5" fill="#E6E6E6"/>
<circle cx="412.5" cy="213.5" r="3.5" fill="#E6E6E6"/>
<circle cx="412.5" cy="160.5" r="3.5" fill="#E6E6E6"/>
<circle cx="412.5" cy="107.5" r="3.5" fill="#E6E6E6"/>
<circle cx="412.5" cy="54.5" r="3.5" fill="#E6E6E6"/>
<circle cx="412.5" cy="4.5" r="3.5" fill="#E6E6E6"/>
<circle cx="359.5" cy="794.5" r="3.5" fill="#E6E6E6"/>
<circle cx="359.5" cy="847.5" r="3.5" fill="#E6E6E6"/>
<circle cx="359.5" cy="741.5" r="3.5" fill="#E6E6E6"/>
<circle cx="359.5" cy="688.5" r="3.5" fill="#E6E6E6"/>
<circle cx="359.5" cy="635.5" r="3.5" fill="#E6E6E6"/>
<circle cx="359.5" cy="582.5" r="3.5" fill="#E6E6E6"/>
<circle cx="359.5" cy="529.5" r="3.5" fill="#E6E6E6"/>
<circle cx="359.5" cy="478.5" r="3.5" fill="#E6E6E6"/>
<circle cx="359.5" cy="425.5" r="3.5" fill="#E6E6E6"/>
<circle cx="359.5" cy="372.5" r="3.5" fill="#E6E6E6"/>
<circle cx="359.5" cy="319.5" r="3.5" fill="#E6E6E6"/>
<circle cx="359.5" cy="266.5" r="3.5" fill="#E6E6E6"/>
<circle cx="359.5" cy="213.5" r="3.5" fill="#E6E6E6"/>
<circle cx="359.5" cy="160.5" r="3.5" fill="#E6E6E6"/>
<circle cx="359.5" cy="107.5" r="3.5" fill="#E6E6E6"/>
<circle cx="359.5" cy="54.5" r="3.5" fill="#E6E6E6"/>
<circle cx="359.5" cy="4.5" r="3.5" fill="#E6E6E6"/>
<circle cx="519.5" cy="794.5" r="3.5" fill="#E6E6E6"/>
<circle cx="519.5" cy="847.5" r="3.5" fill="#E6E6E6"/>
<circle cx="519.5" cy="741.5" r="3.5" fill="#E6E6E6"/>
<circle cx="519.5" cy="688.5" r="3.5" fill="#E6E6E6"/>
<circle cx="519.5" cy="635.5" r="3.5" fill="#E6E6E6"/>
<circle cx="519.5" cy="582.5" r="3.5" fill="#E6E6E6"/>
<circle cx="519.5" cy="529.5" r="3.5" fill="#E6E6E6"/>
<circle cx="519.5" cy="478.5" r="3.5" fill="#E6E6E6"/>
<circle cx="519.5" cy="425.5" r="3.5" fill="#E6E6E6"/>
<circle cx="519.5" cy="372.5" r="3.5" fill="#E6E6E6"/>
<circle cx="519.5" cy="319.5" r="3.5" fill="#E6E6E6"/>
<circle cx="519.5" cy="266.5" r="3.5" fill="#E6E6E6"/>
<circle cx="519.5" cy="213.5" r="3.5" fill="#E6E6E6"/>
<circle cx="519.5" cy="160.5" r="3.5" fill="#E6E6E6"/>
<circle cx="519.5" cy="107.5" r="3.5" fill="#E6E6E6"/>
<circle cx="519.5" cy="54.5" r="3.5" fill="#E6E6E6"/>
<circle cx="519.5" cy="4.5" r="3.5" fill="#E6E6E6"/>
<circle cx="466.5" cy="794.5" r="3.5" fill="#E6E6E6"/>
<circle cx="466.5" cy="847.5" r="3.5" fill="#E6E6E6"/>
<circle cx="466.5" cy="741.5" r="3.5" fill="#E6E6E6"/>
<circle cx="466.5" cy="688.5" r="3.5" fill="#E6E6E6"/>
<circle cx="466.5" cy="635.5" r="3.5" fill="#E6E6E6"/>
<circle cx="466.5" cy="582.5" r="3.5" fill="#E6E6E6"/>
<circle cx="466.5" cy="529.5" r="3.5" fill="#E6E6E6"/>
<circle cx="466.5" cy="478.5" r="3.5" fill="#E6E6E6"/>
<circle cx="466.5" cy="425.5" r="3.5" fill="#E6E6E6"/>
<circle cx="466.5" cy="372.5" r="3.5" fill="#E6E6E6"/>
<circle cx="466.5" cy="319.5" r="3.5" fill="#E6E6E6"/>
<circle cx="466.5" cy="266.5" r="3.5" fill="#E6E6E6"/>
<circle cx="466.5" cy="213.5" r="3.5" fill="#E6E6E6"/>
<circle cx="466.5" cy="160.5" r="3.5" fill="#E6E6E6"/>
<circle cx="466.5" cy="107.5" r="3.5" fill="#E6E6E6"/>
<circle cx="466.5" cy="54.5" r="3.5" fill="#E6E6E6"/>
<circle cx="466.5" cy="4.5" r="3.5" fill="#E6E6E6"/>
<circle cx="624.5" cy="794.5" r="3.5" fill="#E6E6E6"/>
<circle cx="624.5" cy="847.5" r="3.5" fill="#E6E6E6"/>
<circle cx="624.5" cy="741.5" r="3.5" fill="#E6E6E6"/>
<circle cx="624.5" cy="688.5" r="3.5" fill="#E6E6E6"/>
<circle cx="624.5" cy="635.5" r="3.5" fill="#E6E6E6"/>
<circle cx="624.5" cy="582.5" r="3.5" fill="#E6E6E6"/>
<circle cx="624.5" cy="529.5" r="3.5" fill="#E6E6E6"/>
<circle cx="624.5" cy="478.5" r="3.5" fill="#E6E6E6"/>
<circle cx="624.5" cy="425.5" r="3.5" fill="#E6E6E6"/>
<circle cx="624.5" cy="372.5" r="3.5" fill="#E6E6E6"/>
<circle cx="624.5" cy="319.5" r="3.5" fill="#E6E6E6"/>
<circle cx="624.5" cy="266.5" r="3.5" fill="#E6E6E6"/>
<circle cx="624.5" cy="213.5" r="3.5" fill="#E6E6E6"/>
<circle cx="624.5" cy="160.5" r="3.5" fill="#E6E6E6"/>
<circle cx="624.5" cy="107.5" r="3.5" fill="#E6E6E6"/>
<circle cx="624.5" cy="54.5" r="3.5" fill="#E6E6E6"/>
<circle cx="624.5" cy="4.5" r="3.5" fill="#E6E6E6"/>
<circle cx="571.5" cy="794.5" r="3.5" fill="#E6E6E6"/>
<circle cx="571.5" cy="847.5" r="3.5" fill="#E6E6E6"/>
<circle cx="571.5" cy="741.5" r="3.5" fill="#E6E6E6"/>
<circle cx="571.5" cy="688.5" r="3.5" fill="#E6E6E6"/>
<circle cx="571.5" cy="635.5" r="3.5" fill="#E6E6E6"/>
<circle cx="571.5" cy="582.5" r="3.5" fill="#E6E6E6"/>
<circle cx="571.5" cy="529.5" r="3.5" fill="#E6E6E6"/>
<circle cx="571.5" cy="478.5" r="3.5" fill="#E6E6E6"/>
<circle cx="571.5" cy="425.5" r="3.5" fill="#E6E6E6"/>
<circle cx="571.5" cy="372.5" r="3.5" fill="#E6E6E6"/>
<circle cx="571.5" cy="319.5" r="3.5" fill="#E6E6E6"/>
<circle cx="571.5" cy="266.5" r="3.5" fill="#E6E6E6"/>
<circle cx="571.5" cy="213.5" r="3.5" fill="#E6E6E6"/>
<circle cx="571.5" cy="160.5" r="3.5" fill="#E6E6E6"/>
<circle cx="571.5" cy="107.5" r="3.5" fill="#E6E6E6"/>
<circle cx="571.5" cy="54.5" r="3.5" fill="#E6E6E6"/>
<circle cx="571.5" cy="4.5" r="3.5" fill="#E6E6E6"/>
<circle cx="729.5" cy="794.5" r="3.5" fill="#E6E6E6"/>
<circle cx="729.5" cy="847.5" r="3.5" fill="#E6E6E6"/>
<circle cx="729.5" cy="741.5" r="3.5" fill="#E6E6E6"/>
<circle cx="729.5" cy="688.5" r="3.5" fill="#E6E6E6"/>
<circle cx="729.5" cy="635.5" r="3.5" fill="#E6E6E6"/>
<circle cx="729.5" cy="582.5" r="3.5" fill="#E6E6E6"/>
<circle cx="729.5" cy="529.5" r="3.5" fill="#E6E6E6"/>
<circle cx="729.5" cy="478.5" r="3.5" fill="#E6E6E6"/>
<circle cx="729.5" cy="425.5" r="3.5" fill="#E6E6E6"/>
<circle cx="729.5" cy="372.5" r="3.5" fill="#E6E6E6"/>
<circle cx="729.5" cy="319.5" r="3.5" fill="#E6E6E6"/>
<circle cx="729.5" cy="266.5" r="3.5" fill="#E6E6E6"/>
<circle cx="729.5" cy="213.5" r="3.5" fill="#E6E6E6"/>
<circle cx="729.5" cy="160.5" r="3.5" fill="#E6E6E6"/>
<circle cx="729.5" cy="107.5" r="3.5" fill="#E6E6E6"/>
<circle cx="729.5" cy="54.5" r="3.5" fill="#E6E6E6"/>
<circle cx="729.5" cy="4.5" r="3.5" fill="#E6E6E6"/>
<circle cx="676.5" cy="794.5" r="3.5" fill="#E6E6E6"/>
<circle cx="676.5" cy="847.5" r="3.5" fill="#E6E6E6"/>
<circle cx="676.5" cy="741.5" r="3.5" fill="#E6E6E6"/>
<circle cx="676.5" cy="688.5" r="3.5" fill="#E6E6E6"/>
<circle cx="676.5" cy="635.5" r="3.5" fill="#E6E6E6"/>
<circle cx="676.5" cy="582.5" r="3.5" fill="#E6E6E6"/>
<circle cx="676.5" cy="529.5" r="3.5" fill="#E6E6E6"/>
<circle cx="676.5" cy="478.5" r="3.5" fill="#E6E6E6"/>
<circle cx="676.5" cy="425.5" r="3.5" fill="#E6E6E6"/>
<circle cx="676.5" cy="372.5" r="3.5" fill="#E6E6E6"/>
<circle cx="676.5" cy="319.5" r="3.5" fill="#E6E6E6"/>
<circle cx="676.5" cy="266.5" r="3.5" fill="#E6E6E6"/>
<circle cx="676.5" cy="213.5" r="3.5" fill="#E6E6E6"/>
<circle cx="676.5" cy="160.5" r="3.5" fill="#E6E6E6"/>
<circle cx="676.5" cy="107.5" r="3.5" fill="#E6E6E6"/>
<circle cx="676.5" cy="54.5" r="3.5" fill="#E6E6E6"/>
<circle cx="676.5" cy="4.5" r="3.5" fill="#E6E6E6"/>
<circle cx="834.5" cy="794.5" r="3.5" fill="#E6E6E6"/>
<circle cx="834.5" cy="847.5" r="3.5" fill="#E6E6E6"/>
<circle cx="834.5" cy="741.5" r="3.5" fill="#E6E6E6"/>
<circle cx="834.5" cy="688.5" r="3.5" fill="#E6E6E6"/>
<circle cx="834.5" cy="635.5" r="3.5" fill="#E6E6E6"/>
<circle cx="834.5" cy="582.5" r="3.5" fill="#E6E6E6"/>
<circle cx="834.5" cy="529.5" r="3.5" fill="#E6E6E6"/>
<circle cx="834.5" cy="478.5" r="3.5" fill="#E6E6E6"/>
<circle cx="834.5" cy="425.5" r="3.5" fill="#E6E6E6"/>
<circle cx="834.5" cy="372.5" r="3.5" fill="#E6E6E6"/>
<circle cx="834.5" cy="319.5" r="3.5" fill="#E6E6E6"/>
<circle cx="834.5" cy="266.5" r="3.5" fill="#E6E6E6"/>
<circle cx="834.5" cy="213.5" r="3.5" fill="#E6E6E6"/>
<circle cx="834.5" cy="160.5" r="3.5" fill="#E6E6E6"/>
<circle cx="834.5" cy="107.5" r="3.5" fill="#E6E6E6"/>
<circle cx="834.5" cy="54.5" r="3.5" fill="#E6E6E6"/>
<circle cx="834.5" cy="4.5" r="3.5" fill="#E6E6E6"/>
<circle cx="781.5" cy="794.5" r="3.5" fill="#E6E6E6"/>
<circle cx="781.5" cy="847.5" r="3.5" fill="#E6E6E6"/>
<circle cx="781.5" cy="741.5" r="3.5" fill="#E6E6E6"/>
<circle cx="781.5" cy="688.5" r="3.5" fill="#E6E6E6"/>
<circle cx="781.5" cy="635.5" r="3.5" fill="#E6E6E6"/>
<circle cx="781.5" cy="582.5" r="3.5" fill="#E6E6E6"/>
<circle cx="781.5" cy="529.5" r="3.5" fill="#E6E6E6"/>
<circle cx="781.5" cy="478.5" r="3.5" fill="#E6E6E6"/>
<circle cx="781.5" cy="425.5" r="3.5" fill="#E6E6E6"/>
<circle cx="781.5" cy="372.5" r="3.5" fill="#E6E6E6"/>
<circle cx="781.5" cy="319.5" r="3.5" fill="#E6E6E6"/>
<circle cx="781.5" cy="266.5" r="3.5" fill="#E6E6E6"/>
<circle cx="781.5" cy="213.5" r="3.5" fill="#E6E6E6"/>
<circle cx="781.5" cy="160.5" r="3.5" fill="#E6E6E6"/>
<circle cx="781.5" cy="107.5" r="3.5" fill="#E6E6E6"/>
<circle cx="781.5" cy="54.5" r="3.5" fill="#E6E6E6"/>
<circle cx="781.5" cy="4.5" r="3.5" fill="#E6E6E6"/>
<circle cx="941.5" cy="794.5" r="3.5" fill="#E6E6E6"/>
<circle cx="941.5" cy="847.5" r="3.5" fill="#E6E6E6"/>
<circle cx="941.5" cy="741.5" r="3.5" fill="#E6E6E6"/>
<circle cx="941.5" cy="688.5" r="3.5" fill="#E6E6E6"/>
<circle cx="941.5" cy="635.5" r="3.5" fill="#E6E6E6"/>
<circle cx="941.5" cy="582.5" r="3.5" fill="#E6E6E6"/>
<circle cx="941.5" cy="529.5" r="3.5" fill="#E6E6E6"/>
<circle cx="941.5" cy="478.5" r="3.5" fill="#E6E6E6"/>
<circle cx="941.5" cy="425.5" r="3.5" fill="#E6E6E6"/>
<circle cx="941.5" cy="372.5" r="3.5" fill="#E6E6E6"/>
<circle cx="941.5" cy="319.5" r="3.5" fill="#E6E6E6"/>
<circle cx="941.5" cy="266.5" r="3.5" fill="#E6E6E6"/>
<circle cx="941.5" cy="213.5" r="3.5" fill="#E6E6E6"/>
<circle cx="941.5" cy="160.5" r="3.5" fill="#E6E6E6"/>
<circle cx="941.5" cy="107.5" r="3.5" fill="#E6E6E6"/>
<circle cx="941.5" cy="54.5" r="3.5" fill="#E6E6E6"/>
<circle cx="941.5" cy="4.5" r="3.5" fill="#E6E6E6"/>
<circle cx="888.5" cy="794.5" r="3.5" fill="#E6E6E6"/>
<circle cx="888.5" cy="847.5" r="3.5" fill="#E6E6E6"/>
<circle cx="888.5" cy="741.5" r="3.5" fill="#E6E6E6"/>
<circle cx="888.5" cy="688.5" r="3.5" fill="#E6E6E6"/>
<circle cx="888.5" cy="635.5" r="3.5" fill="#E6E6E6"/>
<circle cx="888.5" cy="582.5" r="3.5" fill="#E6E6E6"/>
<circle cx="888.5" cy="529.5" r="3.5" fill="#E6E6E6"/>
<circle cx="888.5" cy="478.5" r="3.5" fill="#E6E6E6"/>
<circle cx="888.5" cy="425.5" r="3.5" fill="#E6E6E6"/>
<circle cx="888.5" cy="372.5" r="3.5" fill="#E6E6E6"/>
<circle cx="888.5" cy="319.5" r="3.5" fill="#E6E6E6"/>
<circle cx="888.5" cy="266.5" r="3.5" fill="#E6E6E6"/>
<circle cx="888.5" cy="213.5" r="3.5" fill="#E6E6E6"/>
<circle cx="888.5" cy="160.5" r="3.5" fill="#E6E6E6"/>
<circle cx="888.5" cy="107.5" r="3.5" fill="#E6E6E6"/>
<circle cx="888.5" cy="54.5" r="3.5" fill="#E6E6E6"/>
<circle cx="888.5" cy="4.5" r="3.5" fill="#E6E6E6"/>
<circle cx="1046.5" cy="794.5" r="3.5" fill="#E6E6E6"/>
<circle cx="1046.5" cy="847.5" r="3.5" fill="#E6E6E6"/>
<circle cx="1046.5" cy="741.5" r="3.5" fill="#E6E6E6"/>
<circle cx="1046.5" cy="688.5" r="3.5" fill="#E6E6E6"/>
<circle cx="1046.5" cy="635.5" r="3.5" fill="#E6E6E6"/>
<circle cx="1046.5" cy="582.5" r="3.5" fill="#E6E6E6"/>
<circle cx="1046.5" cy="529.5" r="3.5" fill="#E6E6E6"/>
<circle cx="1046.5" cy="478.5" r="3.5" fill="#E6E6E6"/>
<circle cx="1046.5" cy="425.5" r="3.5" fill="#E6E6E6"/>
<circle cx="1046.5" cy="372.5" r="3.5" fill="#E6E6E6"/>
<circle cx="1046.5" cy="319.5" r="3.5" fill="#E6E6E6"/>
<circle cx="1046.5" cy="266.5" r="3.5" fill="#E6E6E6"/>
<circle cx="1046.5" cy="213.5" r="3.5" fill="#E6E6E6"/>
<circle cx="1046.5" cy="160.5" r="3.5" fill="#E6E6E6"/>
<circle cx="1046.5" cy="107.5" r="3.5" fill="#E6E6E6"/>
<circle cx="1046.5" cy="54.5" r="3.5" fill="#E6E6E6"/>
<circle cx="1046.5" cy="4.5" r="3.5" fill="#E6E6E6"/>
<circle cx="993.5" cy="794.5" r="3.5" fill="#E6E6E6"/>
<circle cx="993.5" cy="847.5" r="3.5" fill="#E6E6E6"/>
<circle cx="993.5" cy="741.5" r="3.5" fill="#E6E6E6"/>
<circle cx="993.5" cy="688.5" r="3.5" fill="#E6E6E6"/>
<circle cx="993.5" cy="635.5" r="3.5" fill="#E6E6E6"/>
<circle cx="993.5" cy="582.5" r="3.5" fill="#E6E6E6"/>
<circle cx="993.5" cy="529.5" r="3.5" fill="#E6E6E6"/>
<circle cx="993.5" cy="478.5" r="3.5" fill="#E6E6E6"/>
<circle cx="993.5" cy="425.5" r="3.5" fill="#E6E6E6"/>
<circle cx="993.5" cy="372.5" r="3.5" fill="#E6E6E6"/>
<circle cx="993.5" cy="319.5" r="3.5" fill="#E6E6E6"/>
<circle cx="993.5" cy="266.5" r="3.5" fill="#E6E6E6"/>
<circle cx="993.5" cy="213.5" r="3.5" fill="#E6E6E6"/>
<circle cx="993.5" cy="160.5" r="3.5" fill="#E6E6E6"/>
<circle cx="993.5" cy="107.5" r="3.5" fill="#E6E6E6"/>
<circle cx="993.5" cy="54.5" r="3.5" fill="#E6E6E6"/>
<circle cx="993.5" cy="4.5" r="3.5" fill="#E6E6E6"/>
<circle cx="1151.5" cy="794.5" r="3.5" fill="#E6E6E6"/>
<circle cx="1151.5" cy="847.5" r="3.5" fill="#E6E6E6"/>
<circle cx="1151.5" cy="741.5" r="3.5" fill="#E6E6E6"/>
<circle cx="1151.5" cy="688.5" r="3.5" fill="#E6E6E6"/>
<circle cx="1151.5" cy="635.5" r="3.5" fill="#E6E6E6"/>
<circle cx="1151.5" cy="582.5" r="3.5" fill="#E6E6E6"/>
<circle cx="1151.5" cy="529.5" r="3.5" fill="#E6E6E6"/>
<circle cx="1151.5" cy="478.5" r="3.5" fill="#E6E6E6"/>
<circle cx="1151.5" cy="425.5" r="3.5" fill="#E6E6E6"/>
<circle cx="1151.5" cy="372.5" r="3.5" fill="#E6E6E6"/>
<circle cx="1151.5" cy="319.5" r="3.5" fill="#E6E6E6"/>
<circle cx="1151.5" cy="266.5" r="3.5" fill="#E6E6E6"/>
<circle cx="1151.5" cy="213.5" r="3.5" fill="#E6E6E6"/>
<circle cx="1151.5" cy="160.5" r="3.5" fill="#E6E6E6"/>
<circle cx="1151.5" cy="107.5" r="3.5" fill="#E6E6E6"/>
<circle cx="1151.5" cy="54.5" r="3.5" fill="#E6E6E6"/>
<circle cx="1151.5" cy="4.5" r="3.5" fill="#E6E6E6"/>
<circle cx="1098.5" cy="794.5" r="3.5" fill="#E6E6E6"/>
<circle cx="1098.5" cy="847.5" r="3.5" fill="#E6E6E6"/>
<circle cx="1098.5" cy="741.5" r="3.5" fill="#E6E6E6"/>
<circle cx="1098.5" cy="688.5" r="3.5" fill="#E6E6E6"/>
<circle cx="1098.5" cy="635.5" r="3.5" fill="#E6E6E6"/>
<circle cx="1098.5" cy="582.5" r="3.5" fill="#E6E6E6"/>
<circle cx="1098.5" cy="529.5" r="3.5" fill="#E6E6E6"/>
<circle cx="1098.5" cy="478.5" r="3.5" fill="#E6E6E6"/>
<circle cx="1098.5" cy="425.5" r="3.5" fill="#E6E6E6"/>
<circle cx="1098.5" cy="372.5" r="3.5" fill="#E6E6E6"/>
<circle cx="1098.5" cy="319.5" r="3.5" fill="#E6E6E6"/>
<circle cx="1098.5" cy="266.5" r="3.5" fill="#E6E6E6"/>
<circle cx="1098.5" cy="213.5" r="3.5" fill="#E6E6E6"/>
<circle cx="1098.5" cy="160.5" r="3.5" fill="#E6E6E6"/>
<circle cx="1098.5" cy="107.5" r="3.5" fill="#E6E6E6"/>
<circle cx="1098.5" cy="54.5" r="3.5" fill="#E6E6E6"/>
<circle cx="1098.5" cy="4.5" r="3.5" fill="#E6E6E6"/>
<circle cx="1256.5" cy="794.5" r="3.5" fill="#E6E6E6"/>
<circle cx="1256.5" cy="847.5" r="3.5" fill="#E6E6E6"/>
<circle cx="1256.5" cy="741.5" r="3.5" fill="#E6E6E6"/>
<circle cx="1256.5" cy="688.5" r="3.5" fill="#E6E6E6"/>
<circle cx="1256.5" cy="635.5" r="3.5" fill="#E6E6E6"/>
<circle cx="1256.5" cy="582.5" r="3.5" fill="#E6E6E6"/>
<circle cx="1256.5" cy="529.5" r="3.5" fill="#E6E6E6"/>
<circle cx="1256.5" cy="478.5" r="3.5" fill="#E6E6E6"/>
<circle cx="1256.5" cy="425.5" r="3.5" fill="#E6E6E6"/>
<circle cx="1256.5" cy="372.5" r="3.5" fill="#E6E6E6"/>
<circle cx="1256.5" cy="319.5" r="3.5" fill="#E6E6E6"/>
<circle cx="1256.5" cy="266.5" r="3.5" fill="#E6E6E6"/>
<circle cx="1256.5" cy="213.5" r="3.5" fill="#E6E6E6"/>
<circle cx="1256.5" cy="160.5" r="3.5" fill="#E6E6E6"/>
<circle cx="1256.5" cy="107.5" r="3.5" fill="#E6E6E6"/>
<circle cx="1256.5" cy="54.5" r="3.5" fill="#E6E6E6"/>
<circle cx="1256.5" cy="4.5" r="3.5" fill="#E6E6E6"/>
<circle cx="1203.5" cy="794.5" r="3.5" fill="#E6E6E6"/>
<circle cx="1203.5" cy="847.5" r="3.5" fill="#E6E6E6"/>
<circle cx="1203.5" cy="741.5" r="3.5" fill="#E6E6E6"/>
<circle cx="1203.5" cy="688.5" r="3.5" fill="#E6E6E6"/>
<circle cx="1203.5" cy="635.5" r="3.5" fill="#E6E6E6"/>
<circle cx="1203.5" cy="582.5" r="3.5" fill="#E6E6E6"/>
<circle cx="1203.5" cy="529.5" r="3.5" fill="#E6E6E6"/>
<circle cx="1203.5" cy="478.5" r="3.5" fill="#E6E6E6"/>
<circle cx="1203.5" cy="425.5" r="3.5" fill="#E6E6E6"/>
<circle cx="1203.5" cy="372.5" r="3.5" fill="#E6E6E6"/>
<circle cx="1203.5" cy="319.5" r="3.5" fill="#E6E6E6"/>
<circle cx="1203.5" cy="266.5" r="3.5" fill="#E6E6E6"/>
<circle cx="1203.5" cy="213.5" r="3.5" fill="#E6E6E6"/>
<circle cx="1203.5" cy="160.5" r="3.5" fill="#E6E6E6"/>
<circle cx="1203.5" cy="107.5" r="3.5" fill="#E6E6E6"/>
<circle cx="1203.5" cy="54.5" r="3.5" fill="#E6E6E6"/>
<circle cx="1203.5" cy="4.5" r="3.5" fill="#E6E6E6"/>
<circle cx="1362.5" cy="793.5" r="3.5" fill="#E6E6E6"/>
<circle cx="1362.5" cy="846.5" r="3.5" fill="#E6E6E6"/>
<circle cx="1362.5" cy="740.5" r="3.5" fill="#E6E6E6"/>
<circle cx="1362.5" cy="687.5" r="3.5" fill="#E6E6E6"/>
<circle cx="1362.5" cy="634.5" r="3.5" fill="#E6E6E6"/>
<circle cx="1362.5" cy="581.5" r="3.5" fill="#E6E6E6"/>
<circle cx="1362.5" cy="528.5" r="3.5" fill="#E6E6E6"/>
<circle cx="1362.5" cy="477.5" r="3.5" fill="#E6E6E6"/>
<circle cx="1362.5" cy="424.5" r="3.5" fill="#E6E6E6"/>
<circle cx="1362.5" cy="371.5" r="3.5" fill="#E6E6E6"/>
<circle cx="1362.5" cy="318.5" r="3.5" fill="#E6E6E6"/>
<circle cx="1362.5" cy="265.5" r="3.5" fill="#E6E6E6"/>
<circle cx="1362.5" cy="212.5" r="3.5" fill="#E6E6E6"/>
<circle cx="1362.5" cy="159.5" r="3.5" fill="#E6E6E6"/>
<circle cx="1362.5" cy="106.5" r="3.5" fill="#E6E6E6"/>
<circle cx="1362.5" cy="53.5" r="3.5" fill="#E6E6E6"/>
<circle cx="1362.5" cy="3.5" r="3.5" fill="#E6E6E6"/>
<circle cx="1309.5" cy="793.5" r="3.5" fill="#E6E6E6"/>
<circle cx="1309.5" cy="846.5" r="3.5" fill="#E6E6E6"/>
<circle cx="1309.5" cy="740.5" r="3.5" fill="#E6E6E6"/>
<circle cx="1309.5" cy="687.5" r="3.5" fill="#E6E6E6"/>
<circle cx="1309.5" cy="634.5" r="3.5" fill="#E6E6E6"/>
<circle cx="1309.5" cy="581.5" r="3.5" fill="#E6E6E6"/>
<circle cx="1309.5" cy="528.5" r="3.5" fill="#E6E6E6"/>
<circle cx="1309.5" cy="477.5" r="3.5" fill="#E6E6E6"/>
<circle cx="1309.5" cy="424.5" r="3.5" fill="#E6E6E6"/>
<circle cx="1309.5" cy="371.5" r="3.5" fill="#E6E6E6"/>
<circle cx="1309.5" cy="318.5" r="3.5" fill="#E6E6E6"/>
<circle cx="1309.5" cy="265.5" r="3.5" fill="#E6E6E6"/>
<circle cx="1309.5" cy="212.5" r="3.5" fill="#E6E6E6"/>
<circle cx="1309.5" cy="159.5" r="3.5" fill="#E6E6E6"/>
<circle cx="1309.5" cy="106.5" r="3.5" fill="#E6E6E6"/>
<circle cx="1309.5" cy="53.5" r="3.5" fill="#E6E6E6"/>
<circle cx="1309.5" cy="3.5" r="3.5" fill="#E6E6E6"/>
<circle cx="1467.5" cy="793.5" r="3.5" fill="#E6E6E6"/>
<circle cx="1467.5" cy="846.5" r="3.5" fill="#E6E6E6"/>
<circle cx="1467.5" cy="740.5" r="3.5" fill="#E6E6E6"/>
<circle cx="1467.5" cy="687.5" r="3.5" fill="#E6E6E6"/>
<circle cx="1467.5" cy="634.5" r="3.5" fill="#E6E6E6"/>
<circle cx="1467.5" cy="581.5" r="3.5" fill="#E6E6E6"/>
<circle cx="1467.5" cy="528.5" r="3.5" fill="#E6E6E6"/>
<circle cx="1467.5" cy="477.5" r="3.5" fill="#E6E6E6"/>
<circle cx="1467.5" cy="424.5" r="3.5" fill="#E6E6E6"/>
<circle cx="1467.5" cy="371.5" r="3.5" fill="#E6E6E6"/>
<circle cx="1467.5" cy="318.5" r="3.5" fill="#E6E6E6"/>
<circle cx="1467.5" cy="265.5" r="3.5" fill="#E6E6E6"/>
<circle cx="1467.5" cy="212.5" r="3.5" fill="#E6E6E6"/>
<circle cx="1467.5" cy="159.5" r="3.5" fill="#E6E6E6"/>
<circle cx="1467.5" cy="106.5" r="3.5" fill="#E6E6E6"/>
<circle cx="1467.5" cy="53.5" r="3.5" fill="#E6E6E6"/>
<circle cx="1467.5" cy="3.5" r="3.5" fill="#E6E6E6"/>
<circle cx="1414.5" cy="793.5" r="3.5" fill="#E6E6E6"/>
<circle cx="1414.5" cy="846.5" r="3.5" fill="#E6E6E6"/>
<circle cx="1414.5" cy="740.5" r="3.5" fill="#E6E6E6"/>
<circle cx="1414.5" cy="687.5" r="3.5" fill="#E6E6E6"/>
<circle cx="1414.5" cy="634.5" r="3.5" fill="#E6E6E6"/>
<circle cx="1414.5" cy="581.5" r="3.5" fill="#E6E6E6"/>
<circle cx="1414.5" cy="528.5" r="3.5" fill="#E6E6E6"/>
<circle cx="1414.5" cy="477.5" r="3.5" fill="#E6E6E6"/>
<circle cx="1414.5" cy="424.5" r="3.5" fill="#E6E6E6"/>
<circle cx="1414.5" cy="371.5" r="3.5" fill="#E6E6E6"/>
<circle cx="1414.5" cy="318.5" r="3.5" fill="#E6E6E6"/>
<circle cx="1414.5" cy="265.5" r="3.5" fill="#E6E6E6"/>
<circle cx="1414.5" cy="212.5" r="3.5" fill="#E6E6E6"/>
<circle cx="1414.5" cy="159.5" r="3.5" fill="#E6E6E6"/>
<circle cx="1414.5" cy="106.5" r="3.5" fill="#E6E6E6"/>
<circle cx="1414.5" cy="53.5" r="3.5" fill="#E6E6E6"/>
<circle cx="1414.5" cy="3.5" r="3.5" fill="#E6E6E6"/>
</svg>
